<svg version="1.1" xmlns="http://www.w3.org/2000/svg" xmlns:xlink="http://www.w3.org/1999/xlink" width="1540" height="953"><defs><clipPath id="CJTbtoimHfTC"><path fill="none" stroke="none" d=" M 0 0 L 1540 0 L 1540 953 L 0 953 L 0 0 Z"/></clipPath></defs><g transform="scale(1,1)" clip-path="url(#CJTbtoimHfTC)"><g><rect fill="rgb(255,255,255)" stroke="none" x="0" y="0" width="1540" height="953" fill-opacity="1"/><path fill="none" stroke="rgb(255,102,0)" paint-order="fill stroke markers" d=" M 914.4763137506561 370.64811433216096 C 914.4763137506561 523.9810107827516 790.1754415745222 648.2818829588851 636.8425451239311 648.2818829588851 C 483.50964867333994 648.2818829588851 359.20877649720614 523.9810107827516 359.20877649720614 370.64811433216096 C 359.20877649720614 217.31521788157022 483.50964867333994 93.01434570543677 636.8425451239311 93.01434570543677 C 790.1754415745222 93.01434570543677 914.4763137506561 217.31521788157022 914.4763137506561 370.64811433216096 Z" stroke-opacity="1" stroke-linecap="round" stroke-linejoin="round" stroke-miterlimit="10" stroke-width="4.5"/><path fill="none" stroke="rgb(75,0,130)" paint-order="fill stroke markers" d=" M 411.1173152208398 136.54864345824302 C 424.6067704157664 140.0783737087711 438.9704659712753 137.1554432942828 450.0077119250873 128.6346687489446 L 422.5087558307891 93.01434570543677 Z" stroke-opacity="1" stroke-linecap="round" stroke-linejoin="round" stroke-miterlimit="10" stroke-width="4.5"/><path fill="none" stroke="rgb(75,0,130)" paint-order="fill stroke markers" d=" M 453.0631514911205 132.59248242044538 C 465.3267581064671 123.12495514784746 472.5087558307891 108.50725117450105 472.5087558307891 93.01434570543677 L 422.5087558307891 93.01434570543677 Z" stroke-opacity="1" stroke-linecap="round" stroke-linejoin="round" stroke-miterlimit="10" stroke-width="4.5"/><path fill="none" stroke="rgb(0,153,0)" paint-order="fill stroke markers" d=" M 823.9495600253111 93.01434570543677 C 823.9495600253111 103.6467759792946 828.7827001914728 113.70272750039607 837.0852333609063 120.34475403594274 L 858.9495600253111 93.01434570543677 Z" stroke-opacity="1" stroke-linecap="round" stroke-linejoin="round" stroke-miterlimit="10" stroke-width="4.5"/><path fill="none" stroke="rgb(0,153,0)" paint-order="fill stroke markers" d=" M 832.4495600253111 93.01434570543677 C 832.4495600253111 101.0646143413577 836.1089375796907 108.67840620733455 842.3951412651189 113.70736915567704" stroke-opacity="1" stroke-linecap="round" stroke-linejoin="round" stroke-miterlimit="10" stroke-width="4.5"/><path fill="none" stroke="rgb(0,153,0)" paint-order="fill stroke markers" d=" M 827.7148076475899 132.05778617758818 C 839.5755693182091 141.54639551408343 855.1064516296904 145.12904509445133 869.9251697814086 141.79483351031467 L 858.9495600253111 93.01434570543677 Z" stroke-opacity="1" stroke-linecap="round" stroke-linejoin="round" stroke-miterlimit="10" stroke-width="4.5"/><path fill="none" stroke="rgb(0,153,0)" paint-order="fill stroke markers" d=" M 833.0247155518025 125.42040129732243 C 842.8691477384164 133.29594704661355 855.7597800569459 136.26954619831884 868.0593161228721 133.50215058348545" stroke-opacity="1" stroke-linecap="round" stroke-linejoin="round" stroke-miterlimit="10" stroke-width="4.5"/><path fill="none" stroke="rgb(75,0,130)" paint-order="fill stroke markers" d=" M 955.599352043814 522.5689768987819 C 942.3691645517001 525.5457690845075 930.9155605792105 533.7688013596669 923.8647269291106 545.3526218707117 L 966.5749617999115 571.3494647036598 Z" stroke-opacity="1" stroke-linecap="round" stroke-linejoin="round" stroke-miterlimit="10" stroke-width="4.5"/><path fill="none" stroke="rgb(75,0,130)" paint-order="fill stroke markers" d=" M 957.4652057023507 530.8616598256111 C 946.4841500838961 533.3323973397634 936.9776587867296 540.1575141281456 931.1254668571466 549.7720851523128" stroke-opacity="1" stroke-linecap="round" stroke-linejoin="round" stroke-miterlimit="10" stroke-width="4.5"/><path fill="none" stroke="rgb(75,0,130)" paint-order="fill stroke markers" d=" M 959.3310593608871 539.1543427524404 C 950.5991356160921 541.1190255950193 943.0397569942488 546.5462268966245 938.3862067851829 554.191548433914" stroke-opacity="1" stroke-linecap="round" stroke-linejoin="round" stroke-miterlimit="10" stroke-width="4.5"/><path fill="none" stroke="rgb(75,0,130)" paint-order="fill stroke markers" d=" M 906.7806329807902 534.9538847375323 C 896.9094658706504 551.171233452995 894.0489400859353 570.7025382634421 898.854943073324 589.0694834302474 L 966.5749617999116 571.3494647036598 Z" stroke-opacity="1" stroke-linecap="round" stroke-linejoin="round" stroke-miterlimit="10" stroke-width="4.5"/><path fill="none" stroke="rgb(75,0,130)" paint-order="fill stroke markers" d=" M 914.0413729088264 539.3733480191336 C 905.3688475192034 553.6214472477186 902.8556712940609 570.781093616897 907.0780882044096 586.9177668705903" stroke-opacity="1" stroke-linecap="round" stroke-linejoin="round" stroke-miterlimit="10" stroke-width="4.5"/><path fill="none" stroke="rgb(75,0,130)" paint-order="fill stroke markers" d=" M 921.3021128368625 543.7928113007347 C 913.8282291677566 556.0716610424422 911.6624025021866 570.859648970352 915.3012333354952 584.7660503109332" stroke-opacity="1" stroke-linecap="round" stroke-linejoin="round" stroke-miterlimit="10" stroke-width="4.5"/><path fill="none" stroke="rgb(0,153,0)" paint-order="fill stroke markers" d=" M 296.5267109940788 746.678234176298 C 294.27970934766347 738.0909411309693 289.787176365862 730.256619610266 283.5106081058436 723.9800513502475 L 248.1552690465162 759.3353904095748 Z" stroke-opacity="1" stroke-linecap="round" stroke-linejoin="round" stroke-miterlimit="10" stroke-width="4.5"/><path fill="none" stroke="rgb(0,153,0)" paint-order="fill stroke markers" d=" M 287.4091716216255 736.8255340656568 L 295.65032243849924 732.099707871906" stroke-opacity="1" stroke-linecap="round" stroke-linejoin="round" stroke-miterlimit="10" stroke-width="4.5"/><path fill="none" stroke="rgb(0,153,0)" paint-order="fill stroke markers" d=" M 297.6527437295746 709.8379157265167 C 288.8655481655487 701.0507201624908 277.89749803656395 694.7611739879688 265.8752877731039 691.6153716829874 L 248.1552690465162 759.3353904095748 Z" stroke-opacity="1" stroke-linecap="round" stroke-linejoin="round" stroke-miterlimit="10" stroke-width="4.5"/><path fill="none" stroke="rgb(0,153,0)" paint-order="fill stroke markers" d=" M 280.6142331667517 702.7316966410472 L 285.34005936050244 694.4905458241735" stroke-opacity="1" stroke-linecap="round" stroke-linejoin="round" stroke-miterlimit="10" stroke-width="4.5"/><path fill="none" stroke="rgb(0,102,153)" paint-order="fill stroke markers" d=" M 248.1552690465162 759.3353904095748 L 422.5087558307891 93.01434570543677" stroke-opacity="1" stroke-linecap="round" stroke-linejoin="round" stroke-miterlimit="10" stroke-width="4.5"/><path fill="none" stroke="rgb(0,102,153)" paint-order="fill stroke markers" d=" M 858.9495600253111 93.01434570543677 L 422.5087558307891 93.01434570543677" stroke-opacity="1" stroke-linecap="round" stroke-linejoin="round" stroke-miterlimit="10" stroke-width="4.5"/><path fill="none" stroke="rgb(0,102,153)" paint-order="fill stroke markers" d=" M 858.9495600253111 93.01434570543677 L 966.5749617999115 571.3494647036598" stroke-opacity="1" stroke-linecap="round" stroke-linejoin="round" stroke-miterlimit="10" stroke-width="4.5"/><path fill="none" stroke="rgb(0,102,153)" paint-order="fill stroke markers" d=" M 248.1552690465162 759.3353904095748 L 966.5749617999115 571.3494647036598" stroke-opacity="1" stroke-linecap="round" stroke-linejoin="round" stroke-miterlimit="10" stroke-width="4.5"/><path fill="none" stroke="rgb(0,153,204)" paint-order="fill stroke markers" d=" M 636.8425451239311 370.64811433216096 L 422.5087558307891 93.01434570543677" stroke-opacity="1" stroke-linecap="round" stroke-linejoin="round" stroke-miterlimit="10" stroke-width="4.5"/><path fill="none" stroke="rgb(0,153,204)" paint-order="fill stroke markers" d=" M 636.8425451239311 370.64811433216096 L 858.9495600253111 93.01434570543677" stroke-opacity="1" stroke-linecap="round" stroke-linejoin="round" stroke-miterlimit="10" stroke-width="4.5"/><path fill="none" stroke="rgb(0,153,204)" paint-order="fill stroke markers" d=" M 636.8425451239311 370.64811433216096 L 966.5749617999115 571.3494647036598" stroke-opacity="1" stroke-linecap="round" stroke-linejoin="round" stroke-miterlimit="10" stroke-width="4.5"/><path fill="none" stroke="rgb(0,153,204)" paint-order="fill stroke markers" d=" M 636.8425451239311 370.64811433216096 L 248.1552690465162 759.3353904095748" stroke-opacity="1" stroke-linecap="round" stroke-linejoin="round" stroke-miterlimit="10" stroke-width="4.5"/><path fill="rgb(0,153,255)" stroke="none" paint-order="stroke fill markers" d=" M 641.8425451239311 370.64811433216096 C 641.8425451239311 373.4095380813149 639.6039688730851 375.64811433216096 636.8425451239311 375.64811433216096 C 634.0811213747771 375.64811433216096 631.8425451239311 373.4095380813149 631.8425451239311 370.64811433216096 C 631.8425451239311 367.886690583007 634.0811213747771 365.64811433216096 636.8425451239311 365.64811433216096 C 639.6039688730851 365.64811433216096 641.8425451239311 367.886690583007 641.8425451239311 370.64811433216096 Z" fill-opacity="1"/><path fill="none" stroke="rgb(0,0,0)" paint-order="fill stroke markers" d=" M 641.8425451239311 370.64811433216096 C 641.8425451239311 373.4095380813149 639.6039688730851 375.64811433216096 636.8425451239311 375.64811433216096 C 634.0811213747771 375.64811433216096 631.8425451239311 373.4095380813149 631.8425451239311 370.64811433216096 C 631.8425451239311 367.886690583007 634.0811213747771 365.64811433216096 636.8425451239311 365.64811433216096 C 639.6039688730851 365.64811433216096 641.8425451239311 367.886690583007 641.8425451239311 370.64811433216096 Z" stroke-opacity="1" stroke-linecap="round" stroke-linejoin="round" stroke-miterlimit="10"/><path fill="rgb(0,153,255)" stroke="none" paint-order="stroke fill markers" d=" M 253.1552690465162 759.3353904095748 C 253.1552690465162 762.0968141587288 250.91669279567017 764.3353904095748 248.1552690465162 764.3353904095748 C 245.39384529736222 764.3353904095748 243.1552690465162 762.0968141587288 243.1552690465162 759.3353904095748 C 243.1552690465162 756.5739666604208 245.39384529736222 754.3353904095748 248.1552690465162 754.3353904095748 C 250.91669279567017 754.3353904095748 253.1552690465162 756.5739666604208 253.1552690465162 759.3353904095748 Z" fill-opacity="1"/><path fill="none" stroke="rgb(0,0,0)" paint-order="fill stroke markers" d=" M 253.1552690465162 759.3353904095748 C 253.1552690465162 762.0968141587288 250.91669279567017 764.3353904095748 248.1552690465162 764.3353904095748 C 245.39384529736222 764.3353904095748 243.1552690465162 762.0968141587288 243.1552690465162 759.3353904095748 C 243.1552690465162 756.5739666604208 245.39384529736222 754.3353904095748 248.1552690465162 754.3353904095748 C 250.91669279567017 754.3353904095748 253.1552690465162 756.5739666604208 253.1552690465162 759.3353904095748 Z" stroke-opacity="1" stroke-linecap="round" stroke-linejoin="round" stroke-miterlimit="10"/><path fill="rgb(0,153,255)" stroke="none" paint-order="stroke fill markers" d=" M 863.9495600253111 93.01434570543677 C 863.9495600253111 95.77576945459073 861.7109837744651 98.01434570543677 858.9495600253111 98.01434570543677 C 856.1881362761571 98.01434570543677 853.9495600253111 95.77576945459073 853.9495600253111 93.01434570543677 C 853.9495600253111 90.2529219562828 856.1881362761571 88.01434570543677 858.9495600253111 88.01434570543677 C 861.7109837744651 88.01434570543677 863.9495600253111 90.2529219562828 863.9495600253111 93.01434570543677 Z" fill-opacity="1"/><path fill="none" stroke="rgb(0,0,0)" paint-order="fill stroke markers" d=" M 863.9495600253111 93.01434570543677 C 863.9495600253111 95.77576945459073 861.7109837744651 98.01434570543677 858.9495600253111 98.01434570543677 C 856.1881362761571 98.01434570543677 853.9495600253111 95.77576945459073 853.9495600253111 93.01434570543677 C 853.9495600253111 90.2529219562828 856.1881362761571 88.01434570543677 858.9495600253111 88.01434570543677 C 861.7109837744651 88.01434570543677 863.9495600253111 90.2529219562828 863.9495600253111 93.01434570543677 Z" stroke-opacity="1" stroke-linecap="round" stroke-linejoin="round" stroke-miterlimit="10"/><path fill="rgb(0,153,255)" stroke="none" paint-order="stroke fill markers" d=" M 427.5087558307891 93.01434570543677 C 427.5087558307891 95.77576945459073 425.27017957994303 98.01434570543677 422.5087558307891 98.01434570543677 C 419.74733208163514 98.01434570543677 417.5087558307891 95.77576945459073 417.5087558307891 93.01434570543677 C 417.5087558307891 90.2529219562828 419.74733208163514 88.01434570543677 422.5087558307891 88.01434570543677 C 425.27017957994303 88.01434570543677 427.5087558307891 90.2529219562828 427.5087558307891 93.01434570543677 Z" fill-opacity="1"/><path fill="none" stroke="rgb(0,0,0)" paint-order="fill stroke markers" d=" M 427.5087558307891 93.01434570543677 C 427.5087558307891 95.77576945459073 425.27017957994303 98.01434570543677 422.5087558307891 98.01434570543677 C 419.74733208163514 98.01434570543677 417.5087558307891 95.77576945459073 417.5087558307891 93.01434570543677 C 417.5087558307891 90.2529219562828 419.74733208163514 88.01434570543677 422.5087558307891 88.01434570543677 C 425.27017957994303 88.01434570543677 427.5087558307891 90.2529219562828 427.5087558307891 93.01434570543677 Z" stroke-opacity="1" stroke-linecap="round" stroke-linejoin="round" stroke-miterlimit="10"/><path fill="rgb(0,153,255)" stroke="none" paint-order="stroke fill markers" d=" M 971.5749617999115 571.3494647036598 C 971.5749617999115 574.1108884528138 969.3363855490655 576.3494647036598 966.5749617999115 576.3494647036598 C 963.8135380507575 576.3494647036598 961.5749617999115 574.1108884528138 961.5749617999115 571.3494647036598 C 961.5749617999115 568.5880409545058 963.8135380507575 566.3494647036598 966.5749617999115 566.3494647036598 C 969.3363855490655 566.3494647036598 971.5749617999115 568.5880409545058 971.5749617999115 571.3494647036598 Z" fill-opacity="1"/><path fill="none" stroke="rgb(0,0,0)" paint-order="fill stroke markers" d=" M 971.5749617999115 571.3494647036598 C 971.5749617999115 574.1108884528138 969.3363855490655 576.3494647036598 966.5749617999115 576.3494647036598 C 963.8135380507575 576.3494647036598 961.5749617999115 574.1108884528138 961.5749617999115 571.3494647036598 C 961.5749617999115 568.5880409545058 963.8135380507575 566.3494647036598 966.5749617999115 566.3494647036598 C 969.3363855490655 566.3494647036598 971.5749617999115 568.5880409545058 971.5749617999115 571.3494647036598 Z" stroke-opacity="1" stroke-linecap="round" stroke-linejoin="round" stroke-miterlimit="10"/><g transform="scale(35,35)"><g transform="translate(10.571428571428571,2.197285714285714)"><path fill="rgb(0,0,0)" stroke="none" paint-order="stroke fill markers" d=" M 0.179 -0.115 L 0.527 -0.6990000000000001 Q 0.537 -0.715 0.553 -0.716 Q 0.5680000000000001 -0.716 0.5700000000000001 -0.706 Q 0.5710000000000001 -0.7030000000000001 0.5720000000000001 -0.6920000000000001 L 0.633 -0.067 Q 0.636 -0.042 0.645 -0.037 L 0.646 -0.037 L 0.646 -0.037 L 0.646 -0.037 L 0.646 -0.037 L 0.646 -0.036000000000000004 Q 0.658 -0.031 0.6980000000000001 -0.031 Q 0.72 -0.031 0.721 -0.02 Q 0.721 0 0.7030000000000001 0 L 0.591 -0.003 L 0.59 -0.003 L 0.466 0 L 0.465 0 Q 0.451 0 0.451 -0.011 Q 0.459 -0.03 0.47500000000000003 -0.031 Q 0.547 -0.031 0.547 -0.064 Q 0.547 -0.063 0.531 -0.231 L 0.28 -0.231 L 0.20400000000000001 -0.10300000000000001 Q 0.19 -0.078 0.19 -0.066 Q 0.19 -0.035 0.23700000000000002 -0.031 Q 0.253 -0.031 0.253 -0.019 Q 0.253 0 0.234 0 L 0.138 -0.003 L 0.134 -0.003 L 0.05 0 L 0.048 0 Q 0.035 0 0.035 -0.011 Q 0.035 -0.029 0.05 -0.03 L 0.05 -0.031 L 0.056 -0.031 Q 0.11900000000000001 -0.035 0.159 -0.085 Q 0.169 -0.098 0.179 -0.115 M 0.299 -0.262 L 0.528 -0.262 L 0.496 -0.592 L 0.299 -0.262 Z"/></g></g><g transform="scale(35,35)"><g transform="translate(24.82857142857143,2.197285714285714)"><path fill="rgb(0,0,0)" stroke="none" paint-order="stroke fill markers" d=" M 0.16 -0.078 L 0.294 -0.615 Q 0.298 -0.631 0.298 -0.634 Q 0.298 -0.646 0.28200000000000003 -0.649 L 0.281 -0.649 L 0.28 -0.649 Q 0.277 -0.649 0.271 -0.65 Q 0.254 -0.652 0.233 -0.652 Q 0.20700000000000002 -0.652 0.20500000000000002 -0.663 Q 0.20500000000000002 -0.681 0.22 -0.683 L 0.221 -0.683 L 0.222 -0.683 L 0.234 -0.683 L 0.5700000000000001 -0.683 Q 0.685 -0.683 0.734 -0.615 Q 0.756 -0.583 0.756 -0.545 Q 0.756 -0.464 0.666 -0.404 Q 0.665 -0.404 0.664 -0.403 Q 0.611 -0.369 0.547 -0.357 Q 0.649 -0.34500000000000003 0.687 -0.277 Q 0.7020000000000001 -0.249 0.7020000000000001 -0.216 Q 0.7020000000000001 -0.14300000000000002 0.632 -0.079 L 0.631 -0.078 Q 0.545 0 0.426 0 L 0.069 0 Q 0.044 0 0.042 -0.011 Q 0.042 -0.029 0.057 -0.031 L 0.069 -0.031 Q 0.134 -0.031 0.147 -0.045 Q 0.153 -0.052000000000000005 0.159 -0.073 Q 0.159 -0.074 0.16 -0.078 M 0.311 -0.366 L 0.457 -0.366 Q 0.556 -0.366 0.62 -0.438 Q 0.665 -0.489 0.665 -0.549 Q 0.665 -0.622 0.605 -0.644 Q 0.584 -0.652 0.556 -0.652 L 0.427 -0.652 Q 0.391 -0.652 0.383 -0.642 L 0.383 -0.642 L 0.383 -0.641 L 0.382 -0.641 L 0.382 -0.64 Q 0.378 -0.634 0.373 -0.614 L 0.311 -0.366 M 0.266 -0.031 L 0.402 -0.031 Q 0.498 -0.031 0.561 -0.10300000000000001 Q 0.609 -0.159 0.609 -0.227 Q 0.609 -0.3 0.557 -0.33 Q 0.531 -0.34400000000000003 0.494 -0.34400000000000003 L 0.305 -0.34400000000000003 L 0.23600000000000002 -0.065 Q 0.231 -0.047 0.231 -0.042 Q 0.231 -0.034 0.24 -0.032 L 0.24 -0.032 L 0.24 -0.032 L 0.244 -0.032 Q 0.25 -0.031 0.266 -0.031 Z"/></g></g><g transform="scale(35,35)"><g transform="translate(28.142857142857142,17.197285714285716)"><path fill="rgb(0,0,0)" stroke="none" paint-order="stroke fill markers" d=" M 0.76 -0.6950000000000001 L 0.6970000000000001 -0.44 Q 0.6920000000000001 -0.422 0.687 -0.421 L 0.686 -0.42 L 0.679 -0.42 Q 0.664 -0.42 0.664 -0.43 L 0.667 -0.47900000000000004 L 0.667 -0.481 Q 0.667 -0.605 0.589 -0.652 L 0.588 -0.653 Q 0.553 -0.674 0.506 -0.674 Q 0.4 -0.674 0.305 -0.595 Q 0.281 -0.5760000000000001 0.262 -0.553 Q 0.167 -0.442 0.145 -0.271 Q 0.14100000000000001 -0.24 0.14100000000000001 -0.217 Q 0.14100000000000001 -0.077 0.247 -0.028 Q 0.28800000000000003 -0.009000000000000001 0.337 -0.009000000000000001 Q 0.431 -0.009000000000000001 0.521 -0.082 Q 0.591 -0.14100000000000001 0.622 -0.24 Q 0.624 -0.25 0.635 -0.25 Q 0.647 -0.25 0.647 -0.24 Q 0.647 -0.222 0.624 -0.176 Q 0.593 -0.113 0.537 -0.064 Q 0.438 0.022 0.321 0.022 Q 0.193 0.022 0.116 -0.066 Q 0.05 -0.14100000000000001 0.05 -0.252 Q 0.05 -0.401 0.159 -0.531 Q 0.26 -0.652 0.398 -0.6910000000000001 Q 0.449 -0.705 0.498 -0.705 Q 0.607 -0.705 0.664 -0.616 L 0.734 -0.6930000000000001 Q 0.746 -0.705 0.749 -0.705 Q 0.76 -0.705 0.76 -0.6950000000000001 Z"/></g></g><g transform="scale(35,35)"><g transform="translate(5.8,22.825857142857142)"><path fill="rgb(0,0,0)" stroke="none" paint-order="stroke fill markers" d=" M 0.159 -0.078 L 0.159 -0.078 L 0.293 -0.615 Q 0.297 -0.631 0.297 -0.634 Q 0.297 -0.646 0.281 -0.649 L 0.28 -0.649 L 0.28 -0.649 Q 0.278 -0.65 0.275 -0.65 Q 0.251 -0.652 0.232 -0.652 Q 0.20600000000000002 -0.652 0.20400000000000001 -0.66 Q 0.203 -0.662 0.203 -0.664 Q 0.203 -0.681 0.22 -0.683 L 0.22 -0.683 L 0.233 -0.683 L 0.5690000000000001 -0.683 Q 0.6990000000000001 -0.683 0.763 -0.582 Q 0.804 -0.518 0.804 -0.43 Q 0.804 -0.28500000000000003 0.7030000000000001 -0.159 Q 0.607 -0.042 0.47700000000000004 -0.01 Q 0.438 0 0.399 0 L 0.068 0 Q 0.043000000000000003 0 0.041 -0.008 Q 0.04 -0.009000000000000001 0.04 -0.012 Q 0.04 -0.029 0.056 -0.031 L 0.068 -0.031 Q 0.133 -0.031 0.146 -0.045 Q 0.152 -0.052000000000000005 0.158 -0.073 Q 0.158 -0.074 0.159 -0.078 M 0.375 -0.614 L 0.23800000000000002 -0.065 Q 0.233 -0.047 0.233 -0.042 Q 0.233 -0.034 0.242 -0.032 L 0.242 -0.032 L 0.242 -0.032 L 0.246 -0.032 Q 0.252 -0.031 0.268 -0.031 L 0.381 -0.031 Q 0.505 -0.031 0.595 -0.124 Q 0.604 -0.134 0.612 -0.14400000000000002 Q 0.6920000000000001 -0.248 0.713 -0.41600000000000004 Q 0.717 -0.447 0.717 -0.467 Q 0.717 -0.601 0.612 -0.639 Q 0.578 -0.652 0.536 -0.652 L 0.429 -0.652 Q 0.393 -0.652 0.385 -0.642 L 0.385 -0.642 L 0.385 -0.641 L 0.384 -0.641 L 0.384 -0.64 Q 0.38 -0.634 0.375 -0.614 Z"/></g></g><g transform="scale(35,35)"><g transform="translate(17.942857142857143,12.254428571428571)"><path fill="rgb(0,0,0)" stroke="none" paint-order="stroke fill markers" d=" M 0.74 -0.436 L 0.74 -0.436 Q 0.74 -0.281 0.63 -0.149 Q 0.531 -0.029 0.398 0.009000000000000001 Q 0.35100000000000003 0.022 0.305 0.022 Q 0.18 0.022 0.108 -0.066 Q 0.049 -0.138 0.049 -0.245 Q 0.049 -0.395 0.156 -0.529 Q 0.255 -0.65 0.388 -0.6900000000000001 Q 0.437 -0.705 0.485 -0.705 Q 0.612 -0.705 0.684 -0.613 Q 0.74 -0.541 0.74 -0.436 M 0.311 -0.004 L 0.311 -0.004 Q 0.405 -0.004 0.492 -0.088 Q 0.51 -0.105 0.525 -0.124 Q 0.623 -0.246 0.646 -0.41500000000000004 Q 0.651 -0.448 0.651 -0.47500000000000003 Q 0.651 -0.612 0.559 -0.661 Q 0.558 -0.661 0.557 -0.662 Q 0.521 -0.68 0.47900000000000004 -0.68 Q 0.385 -0.68 0.297 -0.599 Q 0.261 -0.5670000000000001 0.233 -0.524 Q 0.157 -0.40900000000000003 0.14400000000000002 -0.249 Q 0.14200000000000002 -0.231 0.14200000000000002 -0.217 Q 0.14200000000000002 -0.089 0.219 -0.033 Q 0.259 -0.004 0.311 -0.004 Z"/></g></g></g></g></svg>