<svg version="1.1" xmlns="http://www.w3.org/2000/svg" xmlns:xlink="http://www.w3.org/1999/xlink" width="1540" height="953"><defs><clipPath id="KuaffrWoyBkQ"><path fill="none" stroke="none" d=" M 0 0 L 1540 0 L 1540 953 L 0 953 L 0 0 Z"/></clipPath></defs><g transform="scale(1,1)" clip-path="url(#KuaffrWoyBkQ)"><g><rect fill="rgb(255,255,255)" stroke="none" x="0" y="0" width="1540" height="953" fill-opacity="1"/><path fill="none" stroke="rgb(255,102,0)" paint-order="fill stroke markers" d=" M 1002.4098378132562 437.25249012989565 C 1002.4098378132562 596.8194073985699 873.0552932498563 726.1739519619698 713.4883759811821 726.1739519619698 C 553.921458712508 726.1739519619698 424.5669141491081 596.8194073985699 424.5669141491081 437.25249012989565 C 424.5669141491081 277.68557286122143 553.921458712508 148.33102829782143 713.4883759811821 148.33102829782143 C 873.0552932498563 148.33102829782143 1002.4098378132562 277.68557286122143 1002.4098378132562 437.25249012989565 Z" stroke-opacity="1" stroke-linecap="round" stroke-linejoin="round" stroke-miterlimit="10" stroke-width="4.5"/><path fill="none" stroke="rgb(75,0,130)" paint-order="fill stroke markers" d=" M 982.0301490037135 330.6648395830437 L 949.1686738588792 343.70797767574476 L 962.211811951579 376.56945282058217 L 995.0732870964146 363.52631472787806 L 982.0301490037135 330.6648395830437" stroke-opacity="1" stroke-linecap="round" stroke-linejoin="round" stroke-miterlimit="10" stroke-width="4.5"/><path fill="none" stroke="rgb(0,102,153)" paint-order="fill stroke markers" d=" M 421.1781850012219 204.25976788636342 L 429.7185363318589 796.7012917327654" stroke-opacity="1" stroke-linecap="round" stroke-linejoin="round" stroke-miterlimit="10" stroke-width="4.5"/><path fill="none" stroke="rgb(0,102,153)" paint-order="fill stroke markers" d=" M 1106.9471617594354 645.3864411381367 L 429.7185363318589 796.7012917327654" stroke-opacity="1" stroke-linecap="round" stroke-linejoin="round" stroke-miterlimit="10" stroke-width="4.5"/><path fill="none" stroke="rgb(0,102,153)" paint-order="fill stroke markers" d=" M 1106.9471617594354 645.3864411381367 L 891.9398495742129 103.68724305280989" stroke-opacity="1" stroke-linecap="round" stroke-linejoin="round" stroke-miterlimit="10" stroke-width="4.5"/><path fill="none" stroke="rgb(0,102,153)" paint-order="fill stroke markers" d=" M 891.9398495742129 103.68724305280989 L 421.1781850012219 204.25976788636342" stroke-opacity="1" stroke-linecap="round" stroke-linejoin="round" stroke-miterlimit="10" stroke-width="4.5"/><path fill="none" stroke="rgb(0,153,204)" paint-order="fill stroke markers" d=" M 713.4883759811821 437.25249012989565 L 982.0301490037135 330.6648395830437" stroke-opacity="1" stroke-linecap="round" stroke-linejoin="round" stroke-miterlimit="10" stroke-width="4.5"/><path fill="rgb(0,153,255)" stroke="none" paint-order="stroke fill markers" d=" M 718.4883759811821 437.25249012989565 C 718.4883759811821 440.0139138790496 716.2497997303361 442.25249012989565 713.4883759811821 442.25249012989565 C 710.7269522320281 442.25249012989565 708.4883759811821 440.0139138790496 708.4883759811821 437.25249012989565 C 708.4883759811821 434.4910663807417 710.7269522320281 432.25249012989565 713.4883759811821 432.25249012989565 C 716.2497997303361 432.25249012989565 718.4883759811821 434.4910663807417 718.4883759811821 437.25249012989565 Z" fill-opacity="1"/><path fill="none" stroke="rgb(0,0,0)" paint-order="fill stroke markers" d=" M 718.4883759811821 437.25249012989565 C 718.4883759811821 440.0139138790496 716.2497997303361 442.25249012989565 713.4883759811821 442.25249012989565 C 710.7269522320281 442.25249012989565 708.4883759811821 440.0139138790496 708.4883759811821 437.25249012989565 C 708.4883759811821 434.4910663807417 710.7269522320281 432.25249012989565 713.4883759811821 432.25249012989565 C 716.2497997303361 432.25249012989565 718.4883759811821 434.4910663807417 718.4883759811821 437.25249012989565 Z" stroke-opacity="1" stroke-linecap="round" stroke-linejoin="round" stroke-miterlimit="10"/><path fill="rgb(0,153,255)" stroke="none" paint-order="stroke fill markers" d=" M 426.1781850012219 204.25976788636342 C 426.1781850012219 207.0211916355174 423.93960875037584 209.25976788636342 421.1781850012219 209.25976788636342 C 418.41676125206794 209.25976788636342 416.1781850012219 207.0211916355174 416.1781850012219 204.25976788636342 C 416.1781850012219 201.49834413720944 418.41676125206794 199.25976788636342 421.1781850012219 199.25976788636342 C 423.93960875037584 199.25976788636342 426.1781850012219 201.49834413720944 426.1781850012219 204.25976788636342 Z" fill-opacity="1"/><path fill="none" stroke="rgb(0,0,0)" paint-order="fill stroke markers" d=" M 426.1781850012219 204.25976788636342 C 426.1781850012219 207.0211916355174 423.93960875037584 209.25976788636342 421.1781850012219 209.25976788636342 C 418.41676125206794 209.25976788636342 416.1781850012219 207.0211916355174 416.1781850012219 204.25976788636342 C 416.1781850012219 201.49834413720944 418.41676125206794 199.25976788636342 421.1781850012219 199.25976788636342 C 423.93960875037584 199.25976788636342 426.1781850012219 201.49834413720944 426.1781850012219 204.25976788636342 Z" stroke-opacity="1" stroke-linecap="round" stroke-linejoin="round" stroke-miterlimit="10"/><path fill="rgb(0,153,255)" stroke="none" paint-order="stroke fill markers" d=" M 1111.9471617594354 645.3864411381367 C 1111.9471617594354 648.1478648872907 1109.7085855085893 650.3864411381367 1106.9471617594354 650.3864411381367 C 1104.1857380102815 650.3864411381367 1101.9471617594354 648.1478648872907 1101.9471617594354 645.3864411381367 C 1101.9471617594354 642.6250173889827 1104.1857380102815 640.3864411381367 1106.9471617594354 640.3864411381367 C 1109.7085855085893 640.3864411381367 1111.9471617594354 642.6250173889827 1111.9471617594354 645.3864411381367 Z" fill-opacity="1"/><path fill="none" stroke="rgb(0,0,0)" paint-order="fill stroke markers" d=" M 1111.9471617594354 645.3864411381367 C 1111.9471617594354 648.1478648872907 1109.7085855085893 650.3864411381367 1106.9471617594354 650.3864411381367 C 1104.1857380102815 650.3864411381367 1101.9471617594354 648.1478648872907 1101.9471617594354 645.3864411381367 C 1101.9471617594354 642.6250173889827 1104.1857380102815 640.3864411381367 1106.9471617594354 640.3864411381367 C 1109.7085855085893 640.3864411381367 1111.9471617594354 642.6250173889827 1111.9471617594354 645.3864411381367 Z" stroke-opacity="1" stroke-linecap="round" stroke-linejoin="round" stroke-miterlimit="10"/><path fill="rgb(0,153,255)" stroke="none" paint-order="stroke fill markers" d=" M 434.7185363318589 796.7012917327654 C 434.7185363318589 799.4627154819194 432.47996008101285 801.7012917327654 429.7185363318589 801.7012917327654 C 426.95711258270495 801.7012917327654 424.7185363318589 799.4627154819194 424.7185363318589 796.7012917327654 C 424.7185363318589 793.9398679836114 426.95711258270495 791.7012917327654 429.7185363318589 791.7012917327654 C 432.47996008101285 791.7012917327654 434.7185363318589 793.9398679836114 434.7185363318589 796.7012917327654 Z" fill-opacity="1"/><path fill="none" stroke="rgb(0,0,0)" paint-order="fill stroke markers" d=" M 434.7185363318589 796.7012917327654 C 434.7185363318589 799.4627154819194 432.47996008101285 801.7012917327654 429.7185363318589 801.7012917327654 C 426.95711258270495 801.7012917327654 424.7185363318589 799.4627154819194 424.7185363318589 796.7012917327654 C 424.7185363318589 793.9398679836114 426.95711258270495 791.7012917327654 429.7185363318589 791.7012917327654 C 432.47996008101285 791.7012917327654 434.7185363318589 793.9398679836114 434.7185363318589 796.7012917327654 Z" stroke-opacity="1" stroke-linecap="round" stroke-linejoin="round" stroke-miterlimit="10"/><path fill="rgb(0,153,255)" stroke="none" paint-order="stroke fill markers" d=" M 896.9398495742129 103.68724305280989 C 896.9398495742129 106.44866680196385 894.7012733233669 108.68724305280989 891.9398495742129 108.68724305280989 C 889.1784258250589 108.68724305280989 886.9398495742129 106.44866680196385 886.9398495742129 103.68724305280989 C 886.9398495742129 100.92581930365593 889.1784258250589 98.68724305280989 891.9398495742129 98.68724305280989 C 894.7012733233669 98.68724305280989 896.9398495742129 100.92581930365593 896.9398495742129 103.68724305280989 Z" fill-opacity="1"/><path fill="none" stroke="rgb(0,0,0)" paint-order="fill stroke markers" d=" M 896.9398495742129 103.68724305280989 C 896.9398495742129 106.44866680196385 894.7012733233669 108.68724305280989 891.9398495742129 108.68724305280989 C 889.1784258250589 108.68724305280989 886.9398495742129 106.44866680196385 886.9398495742129 103.68724305280989 C 886.9398495742129 100.92581930365593 889.1784258250589 98.68724305280989 891.9398495742129 98.68724305280989 C 894.7012733233669 98.68724305280989 896.9398495742129 100.92581930365593 896.9398495742129 103.68724305280989 Z" stroke-opacity="1" stroke-linecap="round" stroke-linejoin="round" stroke-miterlimit="10"/><path fill="rgb(0,153,255)" stroke="none" paint-order="stroke fill markers" d=" M 987.0301490037135 330.6648395830437 C 987.0301490037135 333.42626333219766 984.7915727528675 335.6648395830437 982.0301490037135 335.6648395830437 C 979.2687252545595 335.6648395830437 977.0301490037135 333.42626333219766 977.0301490037135 330.6648395830437 C 977.0301490037135 327.90341583388977 979.2687252545595 325.6648395830437 982.0301490037135 325.6648395830437 C 984.7915727528675 325.6648395830437 987.0301490037135 327.90341583388977 987.0301490037135 330.6648395830437 Z" fill-opacity="1"/><path fill="none" stroke="rgb(0,0,0)" paint-order="fill stroke markers" d=" M 987.0301490037135 330.6648395830437 C 987.0301490037135 333.42626333219766 984.7915727528675 335.6648395830437 982.0301490037135 335.6648395830437 C 979.2687252545595 335.6648395830437 977.0301490037135 333.42626333219766 977.0301490037135 330.6648395830437 C 977.0301490037135 327.90341583388977 979.2687252545595 325.6648395830437 982.0301490037135 325.6648395830437 C 984.7915727528675 325.6648395830437 987.0301490037135 327.90341583388977 987.0301490037135 330.6648395830437 Z" stroke-opacity="1" stroke-linecap="round" stroke-linejoin="round" stroke-miterlimit="10"/><g transform="scale(35,35)"><g transform="translate(19.285714285714285,13.597285714285714)"><path fill="rgb(0,0,0)" stroke="none" paint-order="stroke fill markers" d=" M 0.74 -0.436 L 0.74 -0.436 Q 0.74 -0.281 0.63 -0.149 Q 0.531 -0.029 0.398 0.009000000000000001 Q 0.35100000000000003 0.022 0.305 0.022 Q 0.18 0.022 0.108 -0.066 Q 0.049 -0.138 0.049 -0.245 Q 0.049 -0.395 0.156 -0.529 Q 0.255 -0.65 0.388 -0.6900000000000001 Q 0.437 -0.705 0.485 -0.705 Q 0.612 -0.705 0.684 -0.613 Q 0.74 -0.541 0.74 -0.436 M 0.311 -0.004 L 0.311 -0.004 Q 0.405 -0.004 0.492 -0.088 Q 0.51 -0.105 0.525 -0.124 Q 0.623 -0.246 0.646 -0.41500000000000004 Q 0.651 -0.448 0.651 -0.47500000000000003 Q 0.651 -0.612 0.559 -0.661 Q 0.558 -0.661 0.557 -0.662 Q 0.521 -0.68 0.47900000000000004 -0.68 Q 0.385 -0.68 0.297 -0.599 Q 0.261 -0.5670000000000001 0.233 -0.524 Q 0.157 -0.40900000000000003 0.14400000000000002 -0.249 Q 0.14200000000000002 -0.231 0.14200000000000002 -0.217 Q 0.14200000000000002 -0.089 0.219 -0.033 Q 0.259 -0.004 0.311 -0.004 Z"/></g></g><g transform="scale(35,35)"><g transform="translate(10.8,5.540142857142857)"><path fill="rgb(0,0,0)" stroke="none" paint-order="stroke fill markers" d=" M 0.179 -0.115 L 0.527 -0.6990000000000001 Q 0.537 -0.715 0.553 -0.716 Q 0.5680000000000001 -0.716 0.5700000000000001 -0.706 Q 0.5710000000000001 -0.7030000000000001 0.5720000000000001 -0.6920000000000001 L 0.633 -0.067 Q 0.636 -0.042 0.645 -0.037 L 0.646 -0.037 L 0.646 -0.037 L 0.646 -0.037 L 0.646 -0.037 L 0.646 -0.036000000000000004 Q 0.658 -0.031 0.6980000000000001 -0.031 Q 0.72 -0.031 0.721 -0.02 Q 0.721 0 0.7030000000000001 0 L 0.591 -0.003 L 0.59 -0.003 L 0.466 0 L 0.465 0 Q 0.451 0 0.451 -0.011 Q 0.459 -0.03 0.47500000000000003 -0.031 Q 0.547 -0.031 0.547 -0.064 Q 0.547 -0.063 0.531 -0.231 L 0.28 -0.231 L 0.20400000000000001 -0.10300000000000001 Q 0.19 -0.078 0.19 -0.066 Q 0.19 -0.035 0.23700000000000002 -0.031 Q 0.253 -0.031 0.253 -0.019 Q 0.253 0 0.234 0 L 0.138 -0.003 L 0.134 -0.003 L 0.05 0 L 0.048 0 Q 0.035 0 0.035 -0.011 Q 0.035 -0.029 0.05 -0.03 L 0.05 -0.031 L 0.056 -0.031 Q 0.11900000000000001 -0.035 0.159 -0.085 Q 0.169 -0.098 0.179 -0.115 M 0.299 -0.262 L 0.528 -0.262 L 0.496 -0.592 L 0.299 -0.262 Z"/></g></g><g transform="scale(35,35)"><g transform="translate(25.62857142857143,2.5115714285714286)"><path fill="rgb(0,0,0)" stroke="none" paint-order="stroke fill markers" d=" M 0.16 -0.078 L 0.294 -0.615 Q 0.298 -0.631 0.298 -0.634 Q 0.298 -0.646 0.28200000000000003 -0.649 L 0.281 -0.649 L 0.28 -0.649 Q 0.277 -0.649 0.271 -0.65 Q 0.254 -0.652 0.233 -0.652 Q 0.20700000000000002 -0.652 0.20500000000000002 -0.663 Q 0.20500000000000002 -0.681 0.22 -0.683 L 0.221 -0.683 L 0.222 -0.683 L 0.234 -0.683 L 0.5700000000000001 -0.683 Q 0.685 -0.683 0.734 -0.615 Q 0.756 -0.583 0.756 -0.545 Q 0.756 -0.464 0.666 -0.404 Q 0.665 -0.404 0.664 -0.403 Q 0.611 -0.369 0.547 -0.357 Q 0.649 -0.34500000000000003 0.687 -0.277 Q 0.7020000000000001 -0.249 0.7020000000000001 -0.216 Q 0.7020000000000001 -0.14300000000000002 0.632 -0.079 L 0.631 -0.078 Q 0.545 0 0.426 0 L 0.069 0 Q 0.044 0 0.042 -0.011 Q 0.042 -0.029 0.057 -0.031 L 0.069 -0.031 Q 0.134 -0.031 0.147 -0.045 Q 0.153 -0.052000000000000005 0.159 -0.073 Q 0.159 -0.074 0.16 -0.078 M 0.311 -0.366 L 0.457 -0.366 Q 0.556 -0.366 0.62 -0.438 Q 0.665 -0.489 0.665 -0.549 Q 0.665 -0.622 0.605 -0.644 Q 0.584 -0.652 0.556 -0.652 L 0.427 -0.652 Q 0.391 -0.652 0.383 -0.642 L 0.383 -0.642 L 0.383 -0.641 L 0.382 -0.641 L 0.382 -0.64 Q 0.378 -0.634 0.373 -0.614 L 0.311 -0.366 M 0.266 -0.031 L 0.402 -0.031 Q 0.498 -0.031 0.561 -0.10300000000000001 Q 0.609 -0.159 0.609 -0.227 Q 0.609 -0.3 0.557 -0.33 Q 0.531 -0.34400000000000003 0.494 -0.34400000000000003 L 0.305 -0.34400000000000003 L 0.23600000000000002 -0.065 Q 0.231 -0.047 0.231 -0.042 Q 0.231 -0.034 0.24 -0.032 L 0.24 -0.032 L 0.24 -0.032 L 0.244 -0.032 Q 0.25 -0.031 0.266 -0.031 Z"/></g></g><g transform="scale(35,35)"><g transform="translate(32.285714285714285,19.425857142857144)"><path fill="rgb(0,0,0)" stroke="none" paint-order="stroke fill markers" d=" M 0.76 -0.6950000000000001 L 0.6970000000000001 -0.44 Q 0.6920000000000001 -0.422 0.687 -0.421 L 0.686 -0.42 L 0.679 -0.42 Q 0.664 -0.42 0.664 -0.43 L 0.667 -0.47900000000000004 L 0.667 -0.481 Q 0.667 -0.605 0.589 -0.652 L 0.588 -0.653 Q 0.553 -0.674 0.506 -0.674 Q 0.4 -0.674 0.305 -0.595 Q 0.281 -0.5760000000000001 0.262 -0.553 Q 0.167 -0.442 0.145 -0.271 Q 0.14100000000000001 -0.24 0.14100000000000001 -0.217 Q 0.14100000000000001 -0.077 0.247 -0.028 Q 0.28800000000000003 -0.009000000000000001 0.337 -0.009000000000000001 Q 0.431 -0.009000000000000001 0.521 -0.082 Q 0.591 -0.14100000000000001 0.622 -0.24 Q 0.624 -0.25 0.635 -0.25 Q 0.647 -0.25 0.647 -0.24 Q 0.647 -0.222 0.624 -0.176 Q 0.593 -0.113 0.537 -0.064 Q 0.438 0.022 0.321 0.022 Q 0.193 0.022 0.116 -0.066 Q 0.05 -0.14100000000000001 0.05 -0.252 Q 0.05 -0.401 0.159 -0.531 Q 0.26 -0.652 0.398 -0.6910000000000001 Q 0.449 -0.705 0.498 -0.705 Q 0.607 -0.705 0.664 -0.616 L 0.734 -0.6930000000000001 Q 0.746 -0.705 0.749 -0.705 Q 0.76 -0.705 0.76 -0.6950000000000001 Z"/></g></g><g transform="scale(35,35)"><g transform="translate(11.285714285714286,24.197285714285716)"><path fill="rgb(0,0,0)" stroke="none" paint-order="stroke fill markers" d=" M 0.159 -0.078 L 0.159 -0.078 L 0.293 -0.615 Q 0.297 -0.631 0.297 -0.634 Q 0.297 -0.646 0.281 -0.649 L 0.28 -0.649 L 0.28 -0.649 Q 0.278 -0.65 0.275 -0.65 Q 0.251 -0.652 0.232 -0.652 Q 0.20600000000000002 -0.652 0.20400000000000001 -0.66 Q 0.203 -0.662 0.203 -0.664 Q 0.203 -0.681 0.22 -0.683 L 0.22 -0.683 L 0.233 -0.683 L 0.5690000000000001 -0.683 Q 0.6990000000000001 -0.683 0.763 -0.582 Q 0.804 -0.518 0.804 -0.43 Q 0.804 -0.28500000000000003 0.7030000000000001 -0.159 Q 0.607 -0.042 0.47700000000000004 -0.01 Q 0.438 0 0.399 0 L 0.068 0 Q 0.043000000000000003 0 0.041 -0.008 Q 0.04 -0.009000000000000001 0.04 -0.012 Q 0.04 -0.029 0.056 -0.031 L 0.068 -0.031 Q 0.133 -0.031 0.146 -0.045 Q 0.152 -0.052000000000000005 0.158 -0.073 Q 0.158 -0.074 0.159 -0.078 M 0.375 -0.614 L 0.23800000000000002 -0.065 Q 0.233 -0.047 0.233 -0.042 Q 0.233 -0.034 0.242 -0.032 L 0.242 -0.032 L 0.242 -0.032 L 0.246 -0.032 Q 0.252 -0.031 0.268 -0.031 L 0.381 -0.031 Q 0.505 -0.031 0.595 -0.124 Q 0.604 -0.134 0.612 -0.14400000000000002 Q 0.6920000000000001 -0.248 0.713 -0.41600000000000004 Q 0.717 -0.447 0.717 -0.467 Q 0.717 -0.601 0.612 -0.639 Q 0.578 -0.652 0.536 -0.652 L 0.429 -0.652 Q 0.393 -0.652 0.385 -0.642 L 0.385 -0.642 L 0.385 -0.641 L 0.384 -0.641 L 0.384 -0.64 Q 0.38 -0.634 0.375 -0.614 Z"/></g></g><g transform="scale(35,35)"><g transform="translate(24.228571428571428,12.145285714285713)"><path fill="rgb(0,0,0)" stroke="none" paint-order="stroke fill markers" d=" M 0.088 -0.059000000000000004 L 0.088 -0.059000000000000004 L 0.146 -0.29 Q 0.162 -0.354 0.162 -0.374 Q 0.162 -0.42 0.131 -0.42 Q 0.09 -0.42 0.064 -0.325 Q 0.061 -0.314 0.058 -0.301 Q 0.047 -0.279 0.041 -0.278 Q 0.029 -0.278 0.029 -0.28800000000000003 Q 0.029 -0.304 0.047 -0.355 Q 0.054 -0.373 0.06 -0.385 Q 0.084 -0.434 0.12 -0.441 Q 0.127 -0.442 0.134 -0.442 Q 0.19 -0.442 0.215 -0.394 Q 0.221 -0.383 0.224 -0.37 Q 0.225 -0.368 0.225 -0.365 Q 0.28300000000000003 -0.437 0.353 -0.442 Q 0.40900000000000003 -0.442 0.429 -0.403 Q 0.436 -0.391 0.436 -0.377 Q 0.436 -0.338 0.403 -0.323 Q 0.392 -0.318 0.381 -0.318 Q 0.35000000000000003 -0.318 0.34400000000000003 -0.34500000000000003 Q 0.343 -0.34900000000000003 0.343 -0.353 Q 0.343 -0.386 0.377 -0.402 L 0.378 -0.403 Q 0.386 -0.406 0.395 -0.40800000000000003 L 0.375 -0.417 Q 0.362 -0.419 0.353 -0.42 Q 0.311 -0.42 0.273 -0.387 Q 0.242 -0.359 0.22 -0.313 Q 0.218 -0.308 0.217 -0.305 L 0.185 -0.17500000000000002 L 0.145 -0.017 Q 0.136 0.009000000000000001 0.108 0.011 Q 0.083 0.006 0.079 -0.016 Q 0.079 -0.014 0.088 -0.059000000000000004 Z"/></g></g></g></g></svg>